<?xml version="1.0" encoding="UTF-8"?>
<svg 
  xmlns="http://www.w3.org/2000/svg" 
  xmlns:xlink="http://www.w3.org/1999/xlink" viewBox="0 0 32 32">
  <style>:root&gt;svg{display:none}:root&gt;svg:target{display:block}</style>
  <svg id="dashboard" viewBox="0 0 32 32">
    <path d="M15.467 14.667c0-0.736-0.597-1.333-1.333-1.333-2.207 0-6.593 0-8.8 0-0.736 0-1.333 0.597-1.333 1.333v12c0 0.736 0.597 1.333 1.333 1.333h8.8c0.736 0 1.333-0.597 1.333-1.333 0-2.789 0-9.211 0-12zM28 22.667c0-0.736-0.597-1.333-1.333-1.333h-8c-0.717 0-1.333 0.636-1.333 1.333v4c0 0.736 0.597 1.333 1.333 1.333h8c0.736 0 1.333-0.597 1.333-1.333zM26 23.333v2.667h-6.667v-2.667zM13.467 15.333v10.667h-7.467v-10.667zM28 5.333c0-0.736-0.597-1.333-1.333-1.333-2.049 0-5.951 0-8 0-0.736 0-1.333 0.597-1.333 1.333v12.8c0 0.736 0.597 1.333 1.333 1.333h8c0.736 0 1.333-0.597 1.333-1.333 0-2.925 0-9.875 0-12.8zM26 6v11.467h-6.667v-11.467zM15.467 5.333c0-0.736-0.597-1.333-1.333-1.333-2.207 0-6.593 0-8.8 0-0.736 0-1.333 0.597-1.333 1.333v4.8c0 0.736 0.597 1.333 1.333 1.333h8.8c0.736 0 1.333-0.597 1.333-1.333 0-1.356 0-3.444 0-4.8zM13.467 6v3.467h-7.467v-3.467z"></path>
  </svg>
  <svg id="logOut" viewBox="0 0 32 32">
    <path d="M30.4 16l-9.6-8v4.8h-11.2v6.4h11.2v4.8l9.6-8zM4.8 4.8h12.8v-3.2h-12.8c-1.76 0-3.2 1.44-3.2 3.2v22.4c0 1.76 1.44 3.2 3.2 3.2h12.8v-3.2h-12.8v-22.4z"></path>
  </svg>
  <svg id="email" viewBox="0 0 32 32">
    <path d="M15.987 0l-15.987 11.631v20.369h32v-20.369l-16.013-11.631zM15.988 3.296l13.057 9.484-8.98 6.117-4.065-3.293-4.065 3.295-8.983-6.119 13.036-9.484zM2.667 15.811l7.105 4.84-7.105 5.757v-10.597zM3.299 29.333l12.701-10.297 12.701 10.297h-25.403zM29.333 26.408l-7.105-5.756 7.105-4.841v10.597z"></path>
  </svg>
  <svg id="user" viewBox="0 0 32 32">
    <path d="M31.993 32h-2.66c0-4.139 0.159-4.733-2.348-5.315-3.836-0.885-7.459-1.721-8.779-4.611-0.481-1.055-0.801-2.793 0.413-5.085 2.723-5.143 3.405-9.553 1.871-12.101-1.788-2.972-7.217-2.988-9.021 0.045-1.539 2.583-0.847 6.969 1.899 12.033 1.24 2.283 0.929 4.027 0.451 5.087-1.309 2.904-4.9 3.732-8.7 4.608-2.619 0.605-2.452 1.16-2.452 5.339h-2.66l-0.007-1.655c0-3.36 0.265-5.3 4.237-6.217 4.487-1.036 8.917-1.964 6.787-5.891-6.311-11.639-1.8-18.237 4.976-18.237 6.644 0 11.268 6.355 4.976 18.237-2.068 3.904 2.2 4.832 6.787 5.891 3.972 0.917 4.237 2.857 4.237 6.217l-0.007 1.655zM24 28h-6.667v2.667h6.667v-2.667z"></path>
  </svg>
  <svg id="calendar" viewBox="0 0 32 32">
    <path d="M22.667 4v-2.667c0-0.736 0.596-1.333 1.333-1.333s1.333 0.597 1.333 1.333v2.667c0 0.736-0.596 1.333-1.333 1.333s-1.333-0.597-1.333-1.333zM6.667 5.333c0.737 0 1.333-0.597 1.333-1.333v-2.667c0-0.736-0.596-1.333-1.333-1.333s-1.333 0.597-1.333 1.333v2.667c0 0.736 0.596 1.333 1.333 1.333zM24 22.667v-4h-1.333v5.333h4v-1.333h-2.667zM17.333 23.333c0 3.308 2.692 6 6 6s6-2.692 6-6-2.692-6-6-6-6 2.692-6 6zM32 23.333c0 4.787-3.88 8.667-8.667 8.667s-8.667-3.88-8.667-8.667 3.88-8.667 8.667-8.667 8.667 3.88 8.667 8.667zM13.017 28h-10.351v-17.333h25.333v2.351c0.969 0.44 1.865 1.009 2.667 1.691v-12.041h-4v1.333c0 1.755-1.704 3.119-3.544 2.525-1.108-0.357-1.789-1.481-1.789-2.645v-1.213h-12v1.333c0 1.755-1.704 3.119-3.544 2.525-1.108-0.357-1.789-1.481-1.789-2.645v-1.213h-4v28h14.708c-0.681-0.801-1.251-1.697-1.691-2.667z"></path>
  </svg>
</svg>